<?xml version="1.0" encoding="utf-8"?>
<!-- Generator: Adobe Illustrator 13.0.0, SVG Export Plug-In . SVG Version: 6.00 Build 14948)  -->
<svg version="1.2" baseProfile="tiny" id="Layer_1" xmlns="http://www.w3.org/2000/svg" xmlns:xlink="http://www.w3.org/1999/xlink"
	 x="0px" y="0px" width="201.905px" height="225.355px" viewBox="0 0 201.905 225.355" xml:space="preserve">
<g>
	<path fill-rule="evenodd" fill="#00CC83" d="M43.294,32.165h23.542c7.891,0,12.111,2.53,15.344,7.142
		c11.246,16.042,14.688,29.202-0.449,48.836c-3.439,4.461-7.229,7.142-15.12,7.142H43.294c11.541-21.036,14.274-29.248,31.812-31.45
		v-0.22C57.568,61.413,54.835,53.201,43.294,32.165"/>
	<path fill-rule="evenodd" fill="#00D6F6" d="M153.85,32.165h-23.542c-7.891,0-12.11,2.53-15.344,7.142
		c-11.246,16.042-14.688,29.202,0.449,48.836c3.438,4.461,7.229,7.142,15.119,7.142h23.317
		c-11.541-21.036-14.273-29.248-31.812-31.45v-0.22C139.576,61.413,142.309,53.201,153.85,32.165"/>
	<path fill-rule="evenodd" fill="#00BBFF" d="M98.572,34.878L98.572,34.878c2.263,0,4.098,1.835,4.098,4.098s-1.835,5.08-4.097,5.08
		h0h-0.001c-2.263,0-4.097-2.817-4.097-5.08S96.309,34.878,98.572,34.878L98.572,34.878z M98.572,49.06L98.572,49.06
		c4.946-0.058,7.667-4.084,12.08-11.692c2.885-4.973,2.619-11.908-1.269-18.642L98.572,0v0.001l0-0.001L87.76,18.726
		c-3.888,6.734-4.154,13.669-1.269,18.642C90.904,44.976,93.625,49.002,98.572,49.06L98.572,49.06z"/>
	<path fill-rule="evenodd" fill="#00D9C0" d="M85.761,91.572c-2.928,4.947-1.889,10.504,1.999,17.239l10.812,18.726l0-0.001v0.001
		l10.812-18.726c3.888-6.734,4.927-12.292,1.999-17.239c-2.449-4.136-5.71-8.905-7.744-11.4c-1.696-2.081-3.422-3.024-5.066-3.083
		c-1.645,0.059-3.371,1.001-5.067,3.083C91.471,82.667,88.209,87.436,85.761,91.572"/>
	<path fill-rule="evenodd" fill="#00BBFF" d="M152.276,200.709v0.779c0,0.257-0.003,0.489-0.01,0.698l-0.018,0.601
		c-0.006,0.191-0.012,0.355-0.019,0.492c-0.005,0.138-0.011,0.257-0.018,0.358c-0.006,0.102-0.009,0.177-0.009,0.225v0.071h1.738
		l-0.055-1.434v-5.141c0-1.003,0.019-1.888,0.055-2.651l-1.666,0.054l-4.175,6.986v-4.389c0-1.003,0.024-1.888,0.072-2.651
		l-1.756,0.054l0.071,1.415v4.532v0.779c0,0.257-0.002,0.489-0.009,0.698l-0.018,0.601c-0.006,0.191-0.012,0.355-0.018,0.492
		c-0.006,0.138-0.013,0.257-0.019,0.358s-0.009,0.177-0.009,0.225v0.071h1.684l4.175-6.933V200.709z M150.18,192.379
		c-0.203,0-0.379-0.071-0.528-0.215s-0.263-0.299-0.34-0.466c-0.078-0.167-0.141-0.364-0.188-0.591
		c-0.048-0.228-0.074-0.386-0.08-0.475c-0.006-0.09-0.01-0.158-0.01-0.206l-1.128-0.107c-0.299,0-0.481,0.015-0.547,0.044
		c-0.065,0.03-0.099,0.105-0.099,0.225l0.019,0.286c0.012,0.191,0.071,0.421,0.179,0.689c0.107,0.27,0.254,0.541,0.438,0.815
		c0.186,0.274,0.479,0.508,0.878,0.699c0.4,0.19,0.869,0.286,1.406,0.286c0.538,0,1.007-0.102,1.406-0.305
		c0.4-0.203,0.693-0.427,0.878-0.671c0.186-0.245,0.331-0.529,0.439-0.852c0.107-0.322,0.167-0.547,0.179-0.672
		s0.018-0.224,0.018-0.296c0-0.035-0.006-0.065-0.018-0.089c-0.06-0.072-0.495-0.113-1.308-0.126h-0.341l-0.035,0.036
		c-0.012,0.215-0.042,0.448-0.09,0.698c-0.048,0.251-0.17,0.528-0.367,0.833S150.49,192.379,150.18,192.379z M141.707,200.709v0.779
		c0,0.257-0.003,0.489-0.01,0.698l-0.018,0.601c-0.006,0.191-0.012,0.355-0.018,0.492c-0.006,0.138-0.013,0.257-0.019,0.358
		s-0.008,0.177-0.008,0.225v0.071h1.737l-0.054-1.434v-5.141c0-1.003,0.018-1.888,0.054-2.651l-1.666,0.054l-4.174,6.986v-4.389
		c0-1.003,0.023-1.888,0.071-2.651l-1.756,0.054l0.072,1.415v4.532v0.779c0,0.257-0.003,0.489-0.009,0.698l-0.019,0.601
		c-0.006,0.191-0.012,0.355-0.018,0.492c-0.006,0.138-0.013,0.257-0.019,0.358s-0.009,0.177-0.009,0.225v0.071h1.685l4.174-6.933
		V200.709z M130.08,199.204v-0.018l0.107-0.036c0.097-0.035,0.194-0.096,0.296-0.179c0.102-0.084,0.239-0.23,0.412-0.439
		l0.448-0.555l0.636-0.815l1.881-2.454l-1.935,0.054l-1.881,2.598l-0.483,0.663c-0.072,0.095-0.183,0.227-0.332,0.394
		s-0.277,0.271-0.385,0.313s-0.228,0.063-0.358,0.063h-0.287v-1.433c0-1.003,0.019-1.888,0.054-2.651l-1.72,0.054l0.054,1.415v4.532
		v0.779c0,0.257-0.003,0.489-0.009,0.698l-0.018,0.601c-0.006,0.191-0.009,0.355-0.009,0.492c0,0.138-0.003,0.257-0.01,0.358
		c-0.005,0.102-0.009,0.177-0.009,0.225v0.071h1.72l-0.054-1.434v-2.794h0.52c0.347,0,0.66,0.176,0.94,0.528
		c0.281,0.353,0.792,1.149,1.532,2.392l0.806,1.361l1.953-0.107l-0.18-0.233c-0.119-0.154-0.313-0.441-0.582-0.859l-0.868-1.397
		c-0.395-0.645-0.75-1.144-1.066-1.496c-0.316-0.352-0.544-0.555-0.681-0.608c-0.138-0.054-0.283-0.081-0.438-0.081H130.08z
		 M124.349,195.729c0-0.096-0.072-0.224-0.216-0.385s-0.411-0.322-0.806-0.483s-0.854-0.242-1.38-0.242
		c-1.206,0-2.227,0.46-3.063,1.38c-0.835,0.919-1.253,2.054-1.253,3.403c0,1.469,0.352,2.627,1.057,3.476
		c0.705,0.848,1.624,1.271,2.759,1.271c0.514,0,1.024-0.113,1.531-0.341c0.508-0.227,0.845-0.405,1.012-0.537
		c0.168-0.132,0.293-0.244,0.377-0.341l-0.52-0.77l-0.251,0.161c-0.167,0.119-0.406,0.239-0.717,0.358
		c-0.31,0.119-0.614,0.179-0.913,0.179c-0.765,0-1.392-0.346-1.881-1.038c-0.49-0.693-0.735-1.619-0.735-2.777
		c0-0.884,0.197-1.65,0.592-2.302c0.394-0.651,0.961-0.977,1.702-0.977c0.334,0,0.636,0.081,0.904,0.242s0.436,0.289,0.501,0.385
		c0.066,0.096,0.117,0.174,0.152,0.233l0.287-0.126c0.191-0.083,0.382-0.199,0.573-0.35
		C124.253,196.001,124.349,195.86,124.349,195.729z M115.068,203.934l-0.053-1.434v-5.141c0-1.003,0.018-1.888,0.053-2.651
		l-1.737,0.054l0.072,1.415v2.312h-4.175v-1.129c0-1.003,0.024-1.888,0.071-2.651l-1.755,0.054l0.071,1.415v4.532v0.779
		c0,0.257-0.003,0.489-0.009,0.698l-0.018,0.601c-0.006,0.191-0.012,0.355-0.019,0.492c-0.006,0.138-0.011,0.257-0.018,0.358
		c-0.006,0.102-0.009,0.177-0.009,0.225v0.071h1.755l-0.071-1.434v-2.813h4.175v1.021v0.779c0,0.257-0.004,0.489-0.01,0.698
		l-0.018,0.601c-0.006,0.191-0.013,0.355-0.018,0.492c-0.007,0.138-0.013,0.257-0.019,0.358s-0.009,0.177-0.009,0.225v0.071H115.068
		z M102.834,200.709v0.779c0,0.257-0.004,0.489-0.01,0.698l-0.018,0.601c-0.006,0.191-0.012,0.355-0.018,0.492
		c-0.007,0.138-0.012,0.257-0.019,0.358c-0.006,0.102-0.009,0.177-0.009,0.225v0.071h1.738l-0.054-1.434v-5.141
		c0-1.003,0.018-1.888,0.054-2.651l-1.666,0.054l-4.174,6.986v-4.389c0-1.003,0.024-1.888,0.072-2.651l-1.755,0.054l0.071,1.415
		v4.532v0.779c0,0.257-0.003,0.489-0.009,0.698l-0.018,0.601c-0.006,0.191-0.012,0.355-0.018,0.492
		c-0.006,0.138-0.012,0.257-0.019,0.358c-0.005,0.102-0.008,0.177-0.008,0.225v0.071h1.684l4.174-6.933V200.709z M93.788,202.716
		l-0.018-0.663v-4.693c0-1.003,0.018-1.888,0.054-2.651l-1.737,0.054l0.071,1.415v5.052c0,0.406-0.012,0.901-0.036,1.487h-3.833
		l-0.018-1.487v-3.869c0-1.003,0.024-1.888,0.072-2.651l-1.756,0.054l0.072,1.415v5.124c0,1.003-0.024,1.886-0.072,2.65l6.073-0.036
		c0.394,0,0.627,0.007,0.699,0.019c0.071,0.012,0.107,0.054,0.107,0.125l-0.053,2.293l1.504-0.25
		c0.048-1.302,0.102-2.419,0.161-3.351l-0.054-0.054L93.788,202.716z M81.875,200.709v0.779c0,0.257-0.003,0.489-0.009,0.698
		l-0.018,0.601c-0.006,0.191-0.012,0.355-0.018,0.492c-0.006,0.138-0.012,0.257-0.018,0.358s-0.009,0.177-0.009,0.225v0.071h1.737
		l-0.054-1.434v-5.141c0-1.003,0.019-1.888,0.054-2.651l-1.666,0.054l-4.174,6.986v-4.389c0-1.003,0.024-1.888,0.072-2.651
		l-1.756,0.054l0.072,1.415v4.532v0.779c0,0.257-0.003,0.489-0.009,0.698l-0.018,0.601c-0.006,0.191-0.012,0.355-0.018,0.492
		c-0.006,0.138-0.012,0.257-0.018,0.358s-0.009,0.177-0.009,0.225v0.071h1.684l4.174-6.933V200.709z M72.811,197.413
		c0-1.003,0.018-1.887,0.054-2.651l-1.397,0.018c-0.275,0-0.89-0.003-1.845-0.009s-1.6-0.009-1.935-0.009
		c-0.167,0-0.269,0.036-0.305,0.107c-0.036,0.071-0.077,0.292-0.125,0.663c-0.12,0.943-0.353,2.263-0.699,3.959
		c-0.311,1.48-0.639,2.514-0.985,3.099c-0.072,0.119-0.149,0.18-0.233,0.18c-0.239,0-0.514-0.007-0.824-0.019l-0.036,0.036
		l-0.089,3.564l1.415-0.232c0.06-0.729,0.119-1.374,0.179-1.935c0.012-0.107,0.042-0.17,0.089-0.188
		c0.048-0.018,0.209-0.026,0.484-0.026l5.141,0.018c0.418,0.012,0.657,0.021,0.716,0.027c0.06,0.006,0.09,0.044,0.09,0.116
		l-0.054,2.221l1.505-0.25c0.047-1.254,0.102-2.359,0.161-3.314l-0.054-0.054l-1.236,0.018L72.811,197.413z M67.186,202.751
		c0.37-0.824,0.657-1.797,0.86-2.92c0.191-0.943,0.406-2.239,0.645-3.887l2.508-0.036v4.801c0,0.621-0.012,1.302-0.036,2.042H67.186
		z M58.139,198.255c0.119-0.765,0.382-1.37,0.788-1.818c0.406-0.448,0.877-0.672,1.415-0.672c0.322,0,0.6,0.081,0.833,0.242
		s0.406,0.367,0.52,0.618c0.113,0.25,0.194,0.489,0.242,0.717c0.048,0.227,0.072,0.453,0.072,0.681L58.139,198.255z M63.495,198.488
		c0-0.49-0.054-0.953-0.161-1.389c-0.108-0.436-0.274-0.845-0.501-1.228c-0.227-0.382-0.553-0.687-0.977-0.913
		c-0.424-0.228-0.917-0.341-1.478-0.341c-1.11,0-2.051,0.48-2.821,1.442c-0.77,0.961-1.155,2.093-1.155,3.395
		c0,1.469,0.373,2.618,1.12,3.448c0.746,0.83,1.699,1.245,2.857,1.245c0.49,0,0.998-0.102,1.523-0.305
		c0.526-0.202,0.878-0.367,1.057-0.492c0.179-0.126,0.316-0.23,0.412-0.313l-0.465-0.717l-0.269,0.144
		c-0.179,0.096-0.433,0.188-0.761,0.277c-0.329,0.09-0.642,0.135-0.94,0.135c-0.514,0-0.958-0.107-1.334-0.322
		c-0.376-0.215-0.666-0.508-0.869-0.878c-0.203-0.37-0.352-0.753-0.448-1.147c-0.096-0.394-0.149-0.812-0.161-1.253l5.32-0.216
		L63.495,198.488z M48.896,201.282l-2.598-5.876c-0.131-0.311-0.215-0.543-0.251-0.698l-1.809,0.054l-0.018,0.896l-0.466,5.249
		c-0.119,1.266-0.269,2.274-0.448,3.027h1.541l0.054-1.576l0.394-5.267l3.152,7.004h0.574l3.045-7.004l0.448,5.355
		c0.048,0.562,0.084,1.058,0.108,1.487h1.773l-0.054-0.322c-0.036-0.203-0.086-0.556-0.152-1.057
		c-0.066-0.502-0.128-1.052-0.188-1.648l-0.556-5.625c-0.023-0.215-0.03-0.406-0.018-0.573l-1.738,0.018l-0.233,0.681
		L48.896,201.282z"/>
	<path fill-rule="evenodd" fill="#00BBFF" d="M113.913,218.835c0,2.913-0.018,5.087-0.054,6.521l1.792-0.18l-0.09-0.645
		c-0.013-0.228-0.013-1.29,0-3.188l0.197,0.054c0.144,0.035,0.343,0.071,0.6,0.107c0.257,0.035,0.505,0.054,0.743,0.054
		c1.278,0,2.365-0.493,3.261-1.479s1.344-2.23,1.344-3.734c0-1.255-0.302-2.275-0.905-3.063c-0.603-0.788-1.346-1.183-2.229-1.183
		c-0.514,0-1.033,0.119-1.559,0.358s-0.875,0.43-1.048,0.573s-0.308,0.263-0.403,0.358c0-0.537-0.144-0.962-0.43-1.271l-1.505,0.787
		l0.197,0.502c0.023,0.107,0.044,0.263,0.063,0.466c0.018,0.203,0.029,0.493,0.035,0.869c0.007,0.376,0.01,0.729,0.01,1.057
		s-0.003,0.81-0.01,1.442C113.916,217.873,113.913,218.404,113.913,218.835 M119.968,216.828c0,1.122-0.259,2.003-0.778,2.642
		c-0.52,0.64-1.174,0.959-1.962,0.959c-0.657,0-1.213-0.144-1.666-0.43v-5.822l0.232-0.18c0.168-0.131,0.421-0.26,0.762-0.385
		c0.34-0.125,0.689-0.188,1.048-0.188c0.717,0,1.29,0.277,1.72,0.832C119.753,214.813,119.968,215.669,119.968,216.828z
		 M111.996,213.406l0.072-1.218l-7.882,0.054l-0.108,1.218l3.1-0.035l0.019,4.765v0.779c0,0.257-0.004,0.489-0.01,0.698
		l-0.018,0.601c-0.006,0.191-0.009,0.355-0.009,0.492c0,0.138-0.004,0.257-0.01,0.358s-0.009,0.177-0.009,0.225v0.071h1.738
		l-0.054-1.434v-5.141c0-0.383,0.006-0.854,0.018-1.415L111.996,213.406z M102.306,221.414l-0.054-1.434v-5.141
		c0-1.004,0.018-1.888,0.054-2.651l-1.737,0.054l0.071,1.415v2.311h-4.174v-1.128c0-1.004,0.024-1.888,0.072-2.651l-1.755,0.054
		l0.071,1.415v4.532v0.779c0,0.257-0.003,0.489-0.009,0.698l-0.018,0.601c-0.006,0.191-0.012,0.355-0.018,0.492
		c-0.006,0.138-0.012,0.257-0.019,0.358c-0.006,0.102-0.008,0.177-0.008,0.225v0.071h1.755l-0.072-1.434v-2.813h4.174v1.021v0.779
		c0,0.257-0.003,0.489-0.009,0.698l-0.018,0.601c-0.006,0.191-0.012,0.355-0.018,0.492c-0.006,0.138-0.012,0.257-0.019,0.358
		c-0.005,0.102-0.008,0.177-0.008,0.225v0.071H102.306z M87.187,215.735c0.12-0.765,0.382-1.37,0.788-1.818s0.877-0.672,1.416-0.672
		c0.322,0,0.6,0.081,0.833,0.242s0.406,0.367,0.52,0.618c0.114,0.25,0.194,0.489,0.242,0.716c0.048,0.228,0.072,0.454,0.072,0.681
		L87.187,215.735z M92.542,215.968c0-0.489-0.053-0.952-0.161-1.388c-0.108-0.436-0.275-0.846-0.502-1.228
		c-0.227-0.382-0.552-0.687-0.976-0.913c-0.424-0.228-0.917-0.341-1.478-0.341c-1.111,0-2.051,0.48-2.821,1.442
		c-0.771,0.961-1.156,2.093-1.156,3.395c0,1.469,0.373,2.618,1.12,3.448s1.699,1.245,2.857,1.245c0.49,0,0.997-0.102,1.522-0.305
		c0.526-0.203,0.878-0.367,1.057-0.492c0.179-0.126,0.316-0.23,0.412-0.313l-0.466-0.717l-0.269,0.144
		c-0.179,0.096-0.433,0.188-0.761,0.277c-0.329,0.09-0.642,0.135-0.94,0.135c-0.513,0-0.958-0.107-1.334-0.323
		c-0.376-0.214-0.666-0.507-0.869-0.877c-0.203-0.37-0.352-0.753-0.448-1.146c-0.096-0.395-0.149-0.813-0.161-1.254l5.321-0.216
		L92.542,215.968z M82.744,220.195l-0.018-0.662v-4.693c0-1.004,0.018-1.888,0.054-2.651l-1.738,0.054l0.072,1.415v5.052
		c0,0.406-0.012,0.901-0.036,1.486h-3.834l-0.018-1.486v-3.869c0-1.004,0.024-1.888,0.072-2.651l-1.756,0.054l0.072,1.415v5.123
		c0,1.004-0.024,1.888-0.072,2.651l6.073-0.035c0.394,0,0.627,0.006,0.699,0.018s0.107,0.054,0.107,0.125l-0.054,2.293l1.505-0.251
		c0.048-1.302,0.102-2.418,0.161-3.35l-0.054-0.054L82.744,220.195z"/>
	<path fill-rule="evenodd" fill="#00BBFF" d="M15.975,159.048l-0.001,0.062c-5.171,0.966-6.813,2.19-10.28,8.335L0,177.534
		l4.187,0.104c7.833-0.219,8.161-4.525,12.342-10.988c1.241-1.918,2.19-3.225,2.876-3.897c0.686-0.673,0.964-1.011,1.626-1.011
		h0.638l-0.011,15.898h4.656h4.657l-0.012-15.898h0.638c0.663,0,0.941,0.338,1.626,1.011c0.687,0.673,1.635,1.979,2.876,3.897
		c4.182,6.463,4.51,10.77,12.343,10.988l4.186-0.104l-5.693-10.09c-3.467-6.145-5.109-7.369-10.28-8.335l-0.002-0.062l0.002-0.062
		c5.17-0.967,6.813-2.191,10.28-8.336l5.693-10.09l-4.186-0.104c-7.833,0.218-8.161,4.525-12.343,10.988
		c-1.241,1.919-2.189,3.225-2.876,3.897c-0.686,0.674-0.964,1.011-1.626,1.011h-0.638l0.012-15.897h-4.657h-4.656l0.011,15.897
		h-0.638c-0.662,0-0.941-0.337-1.626-1.011c-0.686-0.673-1.635-1.979-2.876-3.897c-4.182-6.463-4.509-10.771-12.342-10.988
		L0,140.561l5.693,10.09c3.468,6.145,5.109,7.369,10.28,8.336L15.975,159.048z M171.46,177.641h-0.204v0.008h15.152
		c20.227,0,20.732-24.957,1.051-24.164c-3.005,0.121-4.891,2.991-4.917,5.262c14.61-1.486,13.83,13.439,2.502,13.355h-5.133
		l0.15-31.71h-8.579L171.46,177.641z M164.088,177.641v-33.468c0-1.31,0.008-2.569,0.022-3.781h-9.111v14.389h-13.918v-3.621
		c0-1.854,0.02-6.242,0.059-10.768h-9.147v24.401v12.848h9.089v-16.114h13.918v16.114H164.088z M98.244,169.125
		c-1.806,2.84-1.953,5.382,0.105,6.364c7.789,3.721,18.514,3.245,23.698,0.041c3.03-1.873,4.651-4.445,4.651-8.058
		c0-5.136-4.624-8.253-9.354-9.008c4.219-0.836,8.146-4.318,8.146-8.656c0-2.956-1.326-5.349-3.977-7.178
		c-5.314-3.668-17.429-3.547-23.146-0.018c-1.898,1.172-1.256,3.336,0.603,5.58c4.063-2.697,17.167-3.491,17.167,2.53
		c0,3.775-6.928,4.645-9.858,4.645c-0.511,0-3.188-0.01-3.584-0.028v6.483c0.138-0.012,0.309-0.029,0.509-0.051
		c0.426-0.046,3.004-0.07,3.288-0.07c2.651,0,6.652,0.493,8.19,1.478s2.308,2.275,2.308,3.87c0,1.455-0.771,2.593-2.308,3.413
		C110.447,172.724,102.313,171.301,98.244,169.125z M69.996,171.696l4.966-8.102l4.271-7.101l2.924-5.853
		c-0.35,1.899-0.578,3.895-0.578,5.856v21.143h9.089v-24.401c0-1.052,0-2.09,0.002-3.121v-9.727h-3.131
		c-4.146,0-6.967,1.863-9.678,6.084l-4.818,7.949l-4.278,7.113l-2.924,5.853c0.324-2.005,0.578-3.895,0.578-5.857v-21.142h-9.089
		v24.401c0,1.052,0.001,2.09-0.002,3.121v9.727h3.131C64.604,177.641,67.285,175.917,69.996,171.696z"/>
</g>
</svg>
