<svg version="1.2" baseProfile="tiny" xmlns="http://www.w3.org/2000/svg" viewBox="0 0 201.905 225.355"><g fill-rule="evenodd"><path fill="#00CC83" d="M43.3 32.16h23.54c7.9 0 12.1 2.54 15.34 7.15 11.25 16.05 14.7 29.2-.45 48.84C78.3 92.6 74.5 95.3 66.6 95.3H43.3c11.54-21.05 14.27-29.26 31.8-31.46v-.23c-17.53-2.2-20.26-10.4-31.8-31.44"/><path fill="#00D6F6" d="M153.85 32.16H130.3c-7.88 0-12.1 2.54-15.34 7.15-11.24 16.05-14.68 29.2.45 48.84 3.45 4.46 7.24 7.15 15.13 7.15h23.32c-11.54-21.05-14.27-29.26-31.8-31.46v-.23c17.53-2.2 20.26-10.4 31.8-31.44"/><path fill="#0BF" d="M98.57 34.88c2.27 0 4.1 1.83 4.1 4.1s-1.83 5.08-4.1 5.08c-2.26 0-4.1-2.82-4.1-5.08s1.84-4.1 4.1-4.1zm0 14.18c4.95-.06 7.67-4.08 12.08-11.7 2.9-4.96 2.62-11.9-1.27-18.63L98.58 0 87.75 18.73c-3.9 6.73-4.15 13.66-1.27 18.64 4.4 7.6 7.13 11.63 12.07 11.7z"/><path fill="#00D9C0" d="M85.76 91.57c-2.93 4.95-1.9 10.5 2 17.24l10.8 18.74 10.82-18.73c3.9-6.72 4.93-12.28 2-17.23-2.45-4.13-5.7-8.9-7.74-11.4-1.7-2.08-3.42-3.02-5.07-3.08-1.64.05-3.37 1-5.06 3.07-2.03 2.5-5.3 7.27-7.74 11.4"/><path fill="#0BF" d="M152.28 200.7v1.5l-.03.6c0 .18 0 .34-.02.48 0 .14 0 .26-.02.36V203.93h1.74l-.05-1.43v-5.14c0-1 0-1.9.04-2.65l-1.67.06-4.17 7v-4.4c0-1 .02-1.9.07-2.65l-1.75.06.07 1.42v5.33l-.02.68-.02.6c0 .2 0 .36-.02.5 0 .14 0 .25-.02.36s0 .17 0 .22v.07h1.68l4.17-6.93v3.7zm-2.1-8.32c-.2 0-.38-.07-.53-.22s-.26-.3-.34-.46c-.07-.17-.13-.37-.18-.6l-.08-.47v-.2l-1.13-.1c-.3 0-.47 0-.54.03-.07.03-.1.1-.1.23l.02.27c0 .2.07.42.18.7.1.26.25.53.44.8.18.28.48.52.87.7.4.2.87.3 1.4.3.55 0 1.02-.1 1.42-.3.4-.22.68-.44.86-.68.2-.26.34-.54.44-.87.1-.32.17-.54.18-.67l.02-.3c0-.03 0-.06-.02-.08-.06-.07-.5-.1-1.3-.13h-.35l-.03.04c0 .2-.04.44-.1.7-.04.24-.16.5-.36.82s-.45.46-.76.46zm-8.47 8.33v1.5l-.02.6c0 .18 0 .34-.02.48 0 .14 0 .26-.02.36s0 .17 0 .22v.07h1.73l-.05-1.43v-5.14c0-1 0-1.9.05-2.65l-1.67.06-4.17 7v-4.4c0-1 .02-1.9.07-2.65l-1.75.06.07 1.42v6.01l-.03.6-.03.5c0 .14 0 .25-.02.36s0 .17 0 .22v.07h1.68l4.17-6.93v3.7zm-11.62-1.5l.1-.05c.1-.04.2-.1.3-.18.1-.08.24-.23.42-.44l.44-.55.64-.82 1.88-2.45-1.94.06-1.88 2.6-.48.66-.33.4s-.28.27-.4.3-.2.07-.34.07h-.3v-1.44c0-1 .02-1.9.05-2.65l-1.72.06.06 1.42v5.33l-.02.7-.02.6v.48c0 .14 0 .26-.02.36V203.93h1.7l-.04-1.43v-2.8h.52c.35 0 .66.18.94.53.28.36.8 1.15 1.53 2.4l.8 1.36 1.95-.12-.18-.23c-.12-.16-.3-.44-.58-.86l-.88-1.4c-.4-.65-.75-1.15-1.07-1.5-.3-.36-.54-.56-.68-.6-.14-.07-.28-.1-.44-.1h-.05zm-5.73-3.47c0-.1-.07-.22-.22-.4s-.4-.3-.8-.47-.86-.24-1.38-.24c-1.2 0-2.23.46-3.07 1.38-.83.92-1.25 2.05-1.25 3.4 0 1.47.35 2.63 1.06 3.48.7.85 1.6 1.27 2.75 1.27.5 0 1.02-.1 1.53-.34.5-.22.84-.4 1-.53.18-.13.3-.24.4-.34l-.53-.77-.25.16c-.17.12-.4.24-.72.36-.3.12-.6.18-.9.18-.78 0-1.4-.35-1.9-1.04-.48-.7-.73-1.62-.73-2.78 0-.88.2-1.65.6-2.3.4-.65.95-.98 1.7-.98.33 0 .63.08.9.25s.43.3.5.4l.15.22.3-.12c.18-.1.37-.2.56-.35.2-.15.3-.3.3-.42zm-9.28 8.2l-.05-1.43v-5.14c0-1 0-1.9.05-2.65l-1.74.06.07 1.42v2.3h-4.17v-1.12c0-1 .02-1.9.07-2.65l-1.76.06.08 1.42v6.03l-.03.6-.03.48c0 .14 0 .26-.02.36V203.93h1.75l-.07-1.43v-2.8h4.17v2.48l-.03.6c0 .2 0 .36-.02.5v.36l-.02.22v.07h1.74zm-12.24-3.22v1.5l-.02.6v.48l-.03.36V203.93h1.73l-.06-1.43v-5.14c0-1 .02-1.9.06-2.65l-1.67.06-4.17 7v-4.4c0-1 .02-1.9.07-2.65l-1.76.06.08 1.42v6.01l-.03.6c0 .2 0 .36-.02.5 0 .14 0 .25-.02.36V203.93h1.68l4.17-6.93v3.7zm-9.04 2.02l-.03-.67v-4.7c0-1 .02-1.88.05-2.64l-1.73.06.06 1.42v5.05c0 .4 0 .9-.04 1.5H88.3l-.03-1.5v-3.87c0-1 .03-1.9.07-2.65l-1.75.06.06 1.42v5.12c0 1-.02 1.9-.07 2.65l6.06-.03c.4 0 .63 0 .7.02.07 0 .1.05.1.12l-.05 2.3 1.52-.26c.04-1.3.1-2.42.16-3.35l-.06-.05-1.23.02zm-11.92-2v1.47l-.03.6c0 .18 0 .34-.02.48 0 .14 0 .26-.02.36s0 .17 0 .22v.07h1.74l-.05-1.43v-5.14c0-1 0-1.9.04-2.65l-1.67.06-4.17 7v-4.4c0-1 .02-1.9.07-2.65l-1.75.06.07 1.42v5.33l-.02.68-.02.6c0 .2 0 .36-.02.5 0 .14 0 .25-.02.36s0 .17 0 .22v.07h1.68l4.17-6.93v3.7zm-9.07-3.3c0-1 .03-1.9.07-2.66l-1.4.02h-1.85l-1.93-.02c-.18 0-.28.04-.32.1-.03.08-.07.3-.12.67-.12.95-.36 2.27-.7 3.96-.3 1.47-.64 2.5-1 3.1-.06.1-.14.17-.22.17-.24 0-.5 0-.82-.02l-.04.04-.1 3.55 1.43-.23c.07-.73.13-1.37.2-1.94 0-.1.03-.17.08-.18.04-.02.2-.03.48-.03l5.14.02c.42 0 .66 0 .72.02.06 0 .1.04.1.1l-.07 2.23 1.5-.25c.05-1.25.1-2.36.17-3.3l-.06-.07-1.23.02-.02-5.34zm-5.6 5.33c.36-.82.64-1.8.85-2.92.2-.94.4-2.24.64-3.9l2.5-.02v4.8c0 .63 0 1.3-.04 2.05H67.2zm-9.06-4.5c.12-.76.38-1.37.8-1.8.4-.46.86-.7 1.4-.7.32 0 .6.1.83.26s.4.37.52.62c.1.25.2.5.24.72.04.23.07.45.07.68l-3.86.23zm5.35.24c0-.5-.06-.97-.17-1.4-.1-.44-.27-.85-.5-1.23-.22-.38-.55-.7-.97-.9-.43-.24-.92-.35-1.48-.35-1.1 0-2.05.48-2.82 1.44s-1.16 2.1-1.16 3.4c0 1.46.38 2.6 1.12 3.44.75.83 1.7 1.25 2.86 1.25.5 0 1-.1 1.52-.3.53-.2.88-.38 1.06-.5l.4-.3-.45-.73-.26.14c-.18.1-.44.2-.76.28-.33.1-.65.14-.94.14-.52 0-.96-.1-1.34-.33-.37-.2-.66-.5-.87-.87-.2-.37-.35-.76-.44-1.15-.1-.4-.16-.8-.18-1.25l5.32-.22.05-.57zm-14.6 2.78l-2.6-5.87c-.13-.3-.22-.54-.25-.7l-1.8.06-.03.9-.47 5.25c-.1 1.27-.26 2.28-.44 3.03h1.55l.05-1.57.4-5.27 3.15 7h.57l3.05-7 .44 5.35c.06.56.1 1.05.12 1.48h1.78l-.06-.32c-.04-.2-.1-.55-.15-1.05-.08-.5-.14-1.05-.2-1.64l-.56-5.62c-.02-.2-.02-.4 0-.57l-1.75.03-.24.68-2.56 5.88zM113.9 218.84c0 2.9 0 5.08-.04 6.52l1.8-.18-.1-.65v-3.2l.2.07c.14.03.34.07.6.1.25.04.5.06.74.06 1.28 0 2.37-.5 3.26-1.48s1.35-2.23 1.35-3.74c0-1.25-.3-2.27-.9-3.06-.6-.8-1.35-1.18-2.23-1.18-.5 0-1.03.12-1.56.36s-.86.43-1.04.57-.3.26-.4.36c0-.55-.14-.97-.43-1.28l-1.5.78.2.5.06.47.02.87v4.1m6.05-2c0 1.1-.26 2-.78 2.63-.53.64-1.18.96-1.97.96-.66 0-1.22-.15-1.67-.43v-5.82l.23-.18c.16-.13.4-.26.76-.4.34-.1.68-.18 1.04-.18.72 0 1.3.28 1.72.84.43.55.65 1.4.65 2.57zM112 213.4l.07-1.2-7.88.04-.12 1.22 3.1-.04.02 4.77v1.47l-.03.6v.5c0 .13 0 .25-.02.35s0 .17 0 .22v.07h1.73l-.06-1.42v-5.14c0-.38 0-.86.02-1.42H112zm-9.7 8l-.05-1.42v-5.14c0-1 .02-1.9.06-2.65l-1.73.04.07 1.42v2.3h-4.17v-1.12c0-1 .02-1.9.07-2.65l-1.76.04.07 1.42V219.66l-.02.6-.02.5v.35c-.02.1-.02.17-.02.22v.07h1.76l-.08-1.42v-2.8h4.18v2.48l-.03.6v.5c0 .14-.02.25-.03.36V221.4h1.74zm-15.1-5.66c.1-.77.37-1.37.77-1.82s.88-.67 1.42-.67c.3 0 .6.08.82.24s.4.35.52.6.2.5.25.72c.03.23.06.46.06.68l-3.87.24zm5.34.23c0-.5-.05-.95-.16-1.4-.1-.43-.27-.84-.5-1.22-.23-.38-.55-.7-.98-.9-.42-.24-.9-.35-1.47-.35-1.12 0-2.06.48-2.83 1.44s-1.15 2.1-1.15 3.4c0 1.46.37 2.6 1.12 3.44s1.7 1.25 2.86 1.25c.5 0 1-.1 1.52-.3.52-.2.88-.37 1.05-.5l.42-.3-.47-.73-.27.14c-.18.1-.43.2-.76.28-.33.1-.64.14-.94.14-.5 0-.96-.1-1.33-.33-.38-.2-.67-.5-.87-.87-.2-.37-.35-.76-.45-1.15-.1-.38-.15-.8-.16-1.24l5.32-.22.04-.57zm-9.8 4.22v-5.37c0-1 0-1.88.04-2.64l-1.74.04.07 1.42v5.05c0 .42 0 .9-.02 1.5h-3.84V214.84c0-1 0-1.9.06-2.65l-1.76.04.07 1.42v5.12c0 1 0 1.9-.06 2.65l6.07-.03c.4 0 .64 0 .7.02s.12.05.12.12l-.05 2.3 1.5-.26c.05-1.3.1-2.42.16-3.35l-.05-.05h-1.24zM15.97 159.05v.06c-5.17.98-6.8 2.2-10.28 8.35L0 177.53l4.2.1c7.82-.2 8.15-4.52 12.33-10.98 1.24-1.92 2.2-3.23 2.87-3.9.7-.67.97-1 1.63-1h.64v15.9H30.97v-15.9h.63c.66 0 .94.33 1.62 1 .7.68 1.64 1.98 2.88 3.9 4.18 6.46 4.5 10.77 12.34 11l4.2-.12-5.7-10.1c-3.47-6.13-5.1-7.36-10.28-8.32V159c5.17-.96 6.8-2.2 10.28-8.33l5.7-10.1-4.2-.1c-7.83.22-8.16 4.53-12.34 11-1.24 1.9-2.2 3.22-2.88 3.9-.68.66-.96 1-1.62 1h-.64v-15.9h-9.29v15.9h-.63c-.66 0-.94-.34-1.62-1-.68-.68-1.63-2-2.87-3.9-4.18-6.47-4.5-10.78-12.34-11l-4.2.1 5.7 10.1c3.46 6.15 5.1 7.37 10.27 8.34v.05zm155.5 18.6h-.2 15.14c20.23 0 20.74-24.96 1.06-24.17-3 .13-4.9 3-4.92 5.27 14.6-1.5 13.83 13.44 2.5 13.35h-5.13l.16-31.7h-8.58l-.02 37.24zm-7.38 0v-33.48-3.78H155v14.38h-13.92v-3.62c0-1.85.02-6.24.06-10.77H132V177.63h9.08v-16.1H155v16.1h9.1zm-65.86-8.53c-1.8 2.84-1.95 5.4.1 6.37 7.8 3.7 18.52 3.23 23.7.03 3.04-1.87 4.66-4.45 4.66-8.06 0-5.13-4.63-8.25-9.36-9 4.22-.84 8.15-4.32 8.15-8.66 0-2.95-1.34-5.34-4-7.17-5.3-3.67-17.42-3.55-23.13-.02-1.9 1.18-1.26 3.35.6 5.6 4.06-2.7 17.17-3.5 17.17 2.52 0 3.78-6.93 4.65-9.86 4.65-.5 0-3.2 0-3.6-.03v6.48c.15 0 .32-.03.52-.05.43-.04 3-.07 3.3-.07 2.64 0 6.64.5 8.18 1.48s2.3 2.27 2.3 3.87c0 1.45-.76 2.6-2.3 3.4-4.23 2.27-12.37.85-16.44-1.32zM70 171.7l4.96-8.1 4.27-7.1 2.93-5.86c-.35 1.9-.58 3.9-.58 5.86v21.14h9.1v-24.4V140.4h-3.14c-4.15 0-6.97 1.85-9.68 6.07l-4.82 7.95-4.28 7.12-2.92 5.85c.32-2.02.58-3.9.58-5.87V140.4h-9.1v37.24h3.14c4.14 0 6.82-1.72 9.54-5.94z"/></g></svg>