<svg version="1.2" baseProfile="tiny" xmlns="http://www.w3.org/2000/svg" width="465" height="140.718" viewBox="0 0 465 140.718"><g fill-rule="evenodd"><path fill="#FFF" d="M49.15 64.3H32.41v-.103C14.912 61.95 12.185 53.567.67 32.093h23.49c7.874 0 12.084 2.583 15.31 7.29 5.934 8.658 9.69 16.493 9.68 24.916m28.754 0H61.166c-.01-8.424 3.746-16.26 9.678-24.915 3.226-4.708 7.437-7.29 15.31-7.29h23.492C98.13 53.566 95.403 61.948 77.904 64.196v.102z"/><path fill="#00CC83" d="M0 32.094h23.49c7.875 0 12.085 2.524 15.312 7.127 11.222 16.007 14.656 29.14-.45 48.73-3.43 4.45-7.21 7.126-15.085 7.126H0c11.517-20.99 14.243-29.184 31.742-31.38v-.22C14.242 61.277 11.517 53.083 0 32.093"/><path fill="#00D6F6" d="M110.315 32.094h-23.49c-7.874 0-12.085 2.524-15.31 7.127-11.223 16.007-14.657 29.138.447 48.73 3.432 4.45 7.213 7.126 15.087 7.126h23.265c-11.516-20.99-14.243-29.183-31.74-31.38v-.22c17.497-2.198 20.224-10.392 31.74-31.382"/><path fill="#0BF" d="M55.157 34.802c2.26 0 4.09 1.83 4.09 4.088s-1.832 5.07-4.09 5.07-4.088-2.813-4.088-5.07 1.83-4.088 4.087-4.088zm0 14.15c4.936-.057 7.65-4.075 12.055-11.666 2.878-4.963 2.613-11.883-1.266-18.602L55.158 0 44.37 18.685c-3.88 6.72-4.146 13.64-1.267 18.602 4.404 7.59 7.12 11.61 12.054 11.665z"/><path fill="#00D9C0" d="M42.375 91.372c-2.922 4.935-1.885 10.48 1.995 17.2l10.788 18.685 10.79-18.685c3.878-6.72 4.915-12.266 1.993-17.2-2.442-4.128-5.696-8.886-7.725-11.376-1.694-2.076-3.416-3.018-5.057-3.076-1.64.06-3.363 1-5.056 3.076-2.03 2.49-5.284 7.248-7.727 11.376"/><path fill="#0BF" d="M242.497 84.923l8.375-13.666 7.205-11.978 4.933-9.873c-.592 3.204-.976 6.57-.976 9.88V94.95h15.332V53.79c0-1.774 0-3.525.003-5.265V32.118h-5.282c-6.99 0-11.752 3.144-16.324 10.263l-8.126 13.41-7.217 11.998-4.933 9.873c.547-3.38.976-6.57.976-9.88V32.118H221.13v41.16c0 1.774.002 3.524-.003 5.264V94.95h5.28c6.994 0 11.518-2.908 16.09-10.027M290.145 80.585c-3.045 4.79-3.293 9.08.18 10.736 13.14 6.275 31.23 5.475 39.974.07 5.11-3.16 7.844-7.5 7.844-13.593 0-8.662-7.798-13.92-15.775-15.194 7.115-1.41 13.74-7.283 13.74-14.6 0-4.986-2.24-9.023-6.708-12.108-8.966-6.188-29.398-5.983-39.046-.03-3.2 1.977-2.12 5.628 1.018 9.413 6.854-4.55 28.96-5.89 28.96 4.268 0 6.37-11.687 7.835-16.63 7.835-.862 0-5.377-.015-6.046-.047V68.27c.232-.02.52-.05.858-.087.718-.077 5.068-.12 5.546-.12 4.473 0 11.22.833 13.815 2.495 2.594 1.66 3.894 3.837 3.894 6.527 0 2.453-1.3 4.374-3.893 5.758-7.147 3.812-20.868 1.412-27.732-2.258M401.21 94.95V38.495c0-2.208.014-4.334.038-6.378h-15.37v24.27h-23.474V50.28c0-3.126.032-10.528.1-18.162H347.07v62.83h15.332V67.77h23.475V94.95h15.33zM413.646 94.95h-.344v.012h25.56c34.117 0 34.97-42.096 1.77-40.76-5.07.205-8.248 5.047-8.293 8.876 24.644-2.506 23.328 22.67 4.22 22.528h-8.657l.253-53.488h-14.473l-.037 62.83zM151.376 63.587l-.003.104c-8.722 1.63-11.492 3.696-17.34 14.06l-9.604 17.02 7.06.177c13.213-.368 13.767-7.633 20.82-18.534 2.092-3.235 3.693-5.44 4.85-6.575 1.158-1.136 1.627-1.704 2.744-1.704h1.076l-.02 26.816h15.709l-.02-26.816h1.076c1.117 0 1.587.568 2.744 1.704 1.158 1.136 2.758 3.34 4.85 6.575 7.055 10.9 7.607 18.166 20.82 18.534l7.062-.177-9.602-17.02c-5.85-10.363-8.62-12.43-17.34-14.06l-.003-.103.003-.104c8.722-1.63 11.49-3.696 17.34-14.062l9.604-17.017-7.062-.177c-13.213.368-13.766 7.633-20.82 18.534-2.092 3.236-3.692 5.44-4.85 6.575-1.157 1.136-1.626 1.705-2.744 1.705h-1.077l.02-26.817h-15.707l.02 26.817h-1.077c-1.117 0-1.586-.57-2.744-1.705-1.157-1.136-2.758-3.34-4.85-6.575-7.054-10.9-7.607-18.166-20.82-18.534l-7.06.177 9.603 17.018c5.85 10.366 8.62 12.433 17.34 14.063v.104z"/><path fill="#00ACED" d="M122.675 130.866l-3.882-8.78c-.196-.465-.32-.813-.375-1.045l-2.704.08-.027 1.34-.696 7.845c-.177 1.892-.4 3.4-.668 4.523h2.302l.08-2.355.59-7.87 4.71 10.468h.858l4.55-10.468.67 8.005c.07.84.125 1.58.16 2.222h2.65l-.08-.482c-.053-.304-.128-.83-.227-1.58-.098-.75-.192-1.57-.28-2.462l-.83-8.407c-.036-.322-.045-.607-.027-.857l-2.597.027-.348 1.017-3.827 8.78zm21.82-4.177c0-.73-.08-1.424-.242-2.076-.16-.65-.41-1.262-.75-1.833-.34-.57-.825-1.025-1.458-1.364-.634-.34-1.37-.51-2.208-.51-1.66 0-3.066.72-4.216 2.156-1.15 1.437-1.727 3.128-1.727 5.073 0 2.194.558 3.913 1.674 5.153 1.115 1.24 2.538 1.86 4.27 1.86.73 0 1.49-.15 2.275-.455.786-.303 1.312-.548 1.58-.736.268-.188.473-.343.616-.47l-.696-1.07-.4.215c-.27.144-.648.28-1.14.415-.49.135-.96.2-1.404.2-.768 0-1.433-.16-1.995-.48s-.995-.76-1.298-1.313c-.303-.553-.527-1.125-.67-1.713-.142-.588-.222-1.213-.24-1.873l7.952-.32.077-.858zm-8.007-.348c.18-1.143.57-2.048 1.178-2.717.606-.67 1.312-1.005 2.115-1.005.482 0 .897.12 1.246.362.348.24.606.55.776.924.17.374.29.73.36 1.07.073.34.108.68.108 1.018l-5.782.348zm13.52 6.72c.553-1.23.98-2.687 1.284-4.364.286-1.41.607-3.346.964-5.81l3.75-.053v7.175c0 .928-.02 1.945-.055 3.052h-5.942zm8.406-7.978c0-1.5.027-2.82.08-3.963l-2.087.028c-.41 0-1.33-.005-2.758-.014-1.428-.01-2.392-.014-2.892-.014-.25 0-.402.054-.455.16-.054.108-.117.438-.188.99-.18 1.41-.526 3.384-1.044 5.918-.463 2.213-.955 3.757-1.472 4.632-.107.178-.223.267-.348.267-.357 0-.767-.01-1.23-.026l-.054.055-.134 5.327 2.114-.348c.09-1.09.18-2.053.268-2.892.018-.16.063-.254.134-.28.07-.027.312-.04.723-.04l7.684.026c.625.018.98.03 1.07.04.09.01.135.067.135.174l-.082 3.32 2.25-.376c.07-1.874.15-3.524.24-4.952l-.08-.08-1.847.026-.026-7.976zm13.546 4.926v1.164c0 .384-.004.73-.013 1.045l-.026.895c-.008.286-.017.53-.026.735-.01.206-.018.384-.027.536-.01.15-.013.263-.013.334v.107h2.597l-.08-2.142v-7.683c0-1.5.028-2.82.08-3.963l-2.49.08-6.236 10.44V125c0-1.5.036-2.82.107-3.962l-2.623.08.107 2.116v7.936c0 .384-.004.73-.013 1.045l-.026.896c-.008.287-.018.532-.027.736l-.026.536c-.008.15-.013.263-.013.334v.107h2.517l6.237-10.36v5.547zm17.803 2.998l-.027-.99v-7.014c0-1.5.027-2.82.08-3.963l-2.596.08.106 2.117v7.55c0 .605-.018 1.347-.053 2.22h-5.73l-.026-2.22v-5.783c0-1.5.036-2.82.107-3.963l-2.624.08.107 2.117v7.655c0 1.5-.036 2.82-.107 3.963l9.076-.055c.588 0 .936.01 1.043.027.106.018.16.08.16.188l-.08 3.426 2.248-.374c.072-1.944.152-3.613.24-5.006l-.08-.08-1.845.028zm13.52-2.998v1.164c0 .384-.004.73-.014 1.045l-.028.895-.026.735-.027.536c-.01.15-.014.263-.014.334v.107h2.597l-.08-2.142v-7.683c0-1.5.026-2.82.08-3.963l-2.49.08-6.237 10.44V125c0-1.5.035-2.82.106-3.962l-2.624.08.107 2.116v7.936c0 .384-.004.73-.013 1.045l-.027.896-.026.736c-.01.206-.02.384-.03.536-.007.15-.012.263-.012.334v.107h2.518l6.237-10.36v5.547zm18.284 4.818l-.08-2.142v-7.683c0-1.5.026-2.82.08-3.963l-2.597.08.107 2.116v3.452h-6.237v-1.686c0-1.5.035-2.82.107-3.963l-2.624.08.107 2.115v7.936c0 .385-.004.732-.013 1.046l-.027.896c-.008.286-.02.53-.027.735-.01.206-.018.384-.027.536-.01.15-.013.263-.013.334v.107h2.624l-.107-2.142v-4.203h6.237v2.689c0 .383-.004.73-.013 1.044l-.027.896c-.01.286-.018.53-.027.735-.01.206-.018.384-.027.536-.01.152-.013.264-.013.335v.107h2.597zm13.867-12.26c0-.145-.106-.336-.32-.577-.215-.24-.616-.48-1.205-.72-.59-.242-1.277-.363-2.062-.363-1.803 0-3.33.687-4.578 2.062-1.25 1.373-1.874 3.07-1.874 5.085 0 2.195.525 3.927 1.58 5.193 1.053 1.268 2.426 1.9 4.123 1.9.766 0 1.53-.17 2.287-.508.76-.34 1.263-.606 1.513-.803s.438-.366.563-.51l-.776-1.15-.375.24c-.25.18-.606.358-1.07.536-.463.18-.92.27-1.365.27-1.143 0-2.08-.52-2.81-1.554-.733-1.037-1.1-2.42-1.1-4.15 0-1.32.296-2.468.885-3.44.59-.974 1.436-1.46 2.542-1.46.5 0 .95.12 1.353.362.4.24.65.433.75.575.098.144.174.26.227.35l.43-.19c.284-.124.57-.298.855-.52.28-.223.424-.433.424-.63zM244 127.76v-.026l.163-.053c.142-.052.29-.142.44-.267.152-.125.357-.344.616-.656l.668-.83.95-1.218 2.812-3.67-2.89.08-2.814 3.884-.724.99c-.105.143-.27.34-.494.59-.224.25-.415.404-.575.467-.16.064-.34.096-.536.096h-.428v-2.142c0-1.5.025-2.82.08-3.963l-2.57.08.08 2.117V131.172c0 .384-.006.73-.014 1.045l-.026.896c-.01.286-.014.53-.014.735 0 .205-.005.383-.014.535-.01.15-.014.263-.014.334v.106h2.57l-.08-2.142v-4.176h.776c.518 0 .985.264 1.405.79.418.525 1.18 1.717 2.287 3.573l1.205 2.036 2.92-.16-.27-.35c-.178-.23-.468-.66-.87-1.284l-1.298-2.088c-.588-.964-1.12-1.71-1.593-2.235-.473-.528-.812-.832-1.017-.912-.205-.08-.424-.12-.656-.12H244zm17.376 2.25v1.164c0 .384-.004.73-.014 1.045l-.027.895c-.008.286-.018.53-.026.735l-.027.536c-.01.15-.014.263-.014.334v.107h2.596l-.08-2.142v-7.683c0-1.5.026-2.82.08-3.963l-2.49.08-6.237 10.44V125c0-1.5.035-2.82.105-3.962l-2.623.08.106 2.116v7.936c0 .384-.003.73-.012 1.045l-.026.896-.028.736-.025.536c-.01.15-.015.263-.015.334v.107h2.517l6.237-10.36v5.547zm12.663-12.448c-.305 0-.568-.107-.79-.32-.225-.216-.395-.447-.51-.698-.115-.25-.21-.544-.282-.883-.07-.34-.11-.574-.12-.708-.008-.134-.013-.237-.013-.31l-1.688-.16c-.446 0-.718.023-.816.067-.096.043-.145.156-.145.334l.026.43c.02.284.108.628.27 1.03.16.4.38.807.654 1.218.277.41.715.758 1.313 1.044.598.285 1.297.428 2.102.428.802 0 1.502-.15 2.1-.455s1.036-.64 1.312-1.005c.277-.366.496-.79.656-1.27s.25-.817.27-1.005c.016-.188.025-.335.025-.442 0-.053-.01-.098-.026-.133-.09-.107-.74-.17-1.956-.188h-.507l-.053.053c-.02.32-.063.67-.134 1.045-.073.375-.255.79-.55 1.245-.294.453-.674.682-1.137.682zm3.13 12.448v1.164c0 .384-.004.73-.013 1.045l-.026.895c-.01.286-.018.53-.027.735-.008.206-.017.384-.025.536-.008.15-.013.263-.013.334v.107h2.597l-.082-2.142v-7.683c0-1.5.028-2.82.082-3.963l-2.49.08-6.238 10.44V125c0-1.5.035-2.82.107-3.962l-2.623.08.107 2.116v7.936c0 .384-.004.73-.014 1.045l-.026.896c-.01.287-.02.532-.025.736-.01.206-.02.384-.03.536-.008.15-.013.263-.013.334v.107h2.517l6.238-10.36v5.547zm24.496 2.998l-.026-.99v-7.014c0-1.5.026-2.82.08-3.963l-2.597.08.106 2.117v7.55c0 .605-.018 1.347-.054 2.22h-5.73l-.026-2.22v-5.783c0-1.5.037-2.82.107-3.963l-2.624.08.107 2.117v7.655c0 1.5-.035 2.82-.107 3.963l9.077-.055c.588 0 .937.01 1.043.027.107.018.16.08.16.188l-.08 3.426 2.25-.374c.07-1.944.15-3.613.24-5.006l-.08-.08-1.847.028zm14.645-6.32c0-.73-.08-1.422-.24-2.074-.16-.65-.41-1.262-.75-1.833-.34-.57-.825-1.025-1.46-1.364s-1.37-.51-2.207-.51c-1.66 0-3.065.72-4.217 2.156s-1.728 3.128-1.728 5.073c0 2.194.558 3.913 1.674 5.153 1.115 1.24 2.538 1.86 4.27 1.86.732 0 1.49-.15 2.275-.455.786-.303 1.313-.548 1.58-.736.268-.188.473-.343.616-.47l-.697-1.07-.4.215c-.27.144-.647.28-1.14.415-.49.135-.958.2-1.404.2-.768 0-1.432-.16-1.994-.48s-.994-.76-1.298-1.313c-.304-.553-.527-1.125-.67-1.713-.143-.588-.224-1.213-.24-1.873l7.95-.32.08-.858zm-8.005-.346c.18-1.143.572-2.048 1.18-2.717.605-.67 1.31-1.005 2.113-1.005.482 0 .897.12 1.245.362.348.24.607.55.777.924.17.374.29.73.36 1.07.07.34.108.68.108 1.018l-5.783.348zm22.595 8.486l-.08-2.142v-7.683c0-1.5.025-2.82.08-3.963l-2.597.08.107 2.116v3.452h-6.238v-1.686c0-1.5.035-2.82.106-3.963l-2.623.08.106 2.115v7.936c0 .385-.004.732-.012 1.046l-.027.896c-.01.286-.016.53-.025.735-.01.206-.02.384-.026.536-.01.15-.015.263-.015.334v.107h2.623l-.106-2.142v-4.203h6.238v2.689c0 .383-.005.73-.014 1.044l-.028.896c-.008.286-.017.53-.025.735l-.028.536c-.008.152-.012.264-.012.335v.107h2.597zm14.483-11.967l.108-1.82-11.78.08-.16 1.82 4.632-.052.027 7.12v1.165c0 .384-.006.73-.015 1.045l-.027.896c-.008.286-.013.53-.013.735 0 .205-.005.383-.014.535-.01.15-.013.263-.013.334v.106h2.598l-.08-2.142V125c0-.57.008-1.275.026-2.114l4.713-.025zm11.914 5.115c0 1.678-.39 2.994-1.165 3.95s-1.754 1.43-2.932 1.43c-.98 0-1.812-.213-2.49-.642v-8.7l.35-.268c.25-.196.628-.39 1.137-.575.508-.188 1.03-.28 1.565-.28 1.072 0 1.928.414 2.57 1.243.643.83.965 2.11.965 3.842zm-9.05 3c0 4.353-.025 7.602-.08 9.743l2.678-.268-.135-.964c-.02-.34-.02-1.928 0-4.766l.295.08c.214.055.513.108.896.16.385.056.755.08 1.112.08 1.91 0 3.533-.734 4.873-2.207 1.338-1.473 2.008-3.333 2.008-5.582 0-1.873-.45-3.398-1.354-4.576-.9-1.18-2.013-1.768-3.332-1.768-.768 0-1.545.18-2.33.535-.785.358-1.308.644-1.566.858-.26.214-.46.393-.603.535 0-.803-.215-1.437-.644-1.9l-2.248 1.178.294.75c.036.16.068.394.095.696.025.304.044.736.054 1.298.01.563.013 1.09.013 1.58s-.003 1.21-.012 2.155c-.008.947-.012 1.74-.012 2.384z"/></g></svg>