<?xml version="1.0" encoding="utf-8"?>
<!-- Generator: Adobe Illustrator 19.2.0, SVG Export Plug-In . SVG Version: 6.00 Build 0)  -->
<svg version="1.1" baseProfile="basic" id="Слой_1"
	 xmlns="http://www.w3.org/2000/svg" xmlns:xlink="http://www.w3.org/1999/xlink" x="0px" y="0px" viewBox="0 0 30 30"
	 xml:space="preserve">
<g>
	<title></title>
	<g id="svg_1" transform="translate(0,1024) scale(0.10000000149011612,-0.10000000149011612) ">
		<path id="svg_2" fill="#60C48F" d="M139.3,10239.6c-35.8-2.7-68.5-17.4-94.1-42.4c-33.7-32.9-49.9-79.5-43.9-126.3
			c7.5-58.5,48.7-107.3,105.4-124.5c43.8-13.3,92.6-5.4,129.8,21c45.7,32.5,69.4,86.5,62.4,141.7c-7.5,58.5-48.7,107.3-105.4,124.5
			C176.5,10238.8,156.8,10240.9,139.3,10239.6z M150.7,10146.7c7.7-0.8,11.5-2,13.2-4.2c0.4-0.6,1.2-2.1,1.6-3.4
			c0.9-2.6,0.9-5.6,0.4-28.1c-0.3-14-0.1-18.4,1-21.5c1.3-3.6,4.3-5.2,6.9-3.8c2.4,1.2,8,7.4,11.6,12.8c8.4,12.4,13.5,22.1,19.7,37
			c1.2,2.9,2.9,4.9,4.6,5.3c0.7,0.2,10.5,0.4,22.5,0.4l21.3,0.1l1.8-0.8c2.3-1,3.2-2.4,3.2-4.8c0-4.7-4.9-14.2-13.2-26
			c-1.1-1.6-5.5-7.4-9.6-12.8c-9.1-12-11.1-14.8-12.4-17.7c-1.7-3.7-1.3-6.7,1.4-10.2c0.8-1,4.8-5,8.9-9c11.5-11,16.7-16.8,21-23.2
			c3-4.6,4.2-8,3.7-10.9c-0.2-1.6-1.8-3.5-3.6-4.4c-2.1-1.1-5.4-1.3-23.5-1.5l-17.1-0.2l-2.8,0.9c-7.1,2.4-11.8,6.3-22.4,18.6
			c-5.9,6.8-10.3,10.2-13.3,10.2c-2.8,0-6.4-3.7-7.9-8.4c-1-3.1-1.4-5.5-1.7-10.9c-0.4-6.4-1.1-7.8-5-9.5c-1.4-0.6-19-0.8-23.7-0.3
			c-9.4,1-18,4-26.7,9.1c-12.5,7.3-20.1,13.9-28.3,24.3c-14.2,18.2-24,33.7-35.7,57c-4.6,9.1-9.9,20.8-10.8,23.6
			c-0.9,2.9,0.4,5.3,3.2,6.2c1,0.3,6.4,0.5,18.8,0.7l17.5,0.2l2-0.8c3.2-1.2,4.6-2.8,6.7-8.1c1.9-4.5,11.9-24.6,15.1-30.3
			c3.2-5.7,6.6-10.5,9.6-13.3c3.6-3.6,5.3-4.4,7.8-4.2c2.2,0.2,2.8,0.7,4.1,3.6c3.3,7.1,3.8,31,0.9,40.4c-1.7,5.4-4.2,7.4-11.2,8.9
			c-1.2,0.3-1.2,0.7-0.1,2.3c2.7,3.9,7.5,5.7,16.7,6.5C131.7,10147.1,146.6,10147.1,150.7,10146.7z"/>
	</g>
</g>
</svg>
